#!OML:ASF F:\VICON\USERDATA\INSTALL\rory3\rory3.ASF
:FULLY-SPECIFIED
:DEGREES
3485
root 1.31203 17.6667 -3.62618 -1435.26 -51.9377 -6.30391
lowerback 10.0794 5.29747 4.2715
upperback 0.431029 7.55083 0.735089
thorax -4.71988 3.63469 -2.63457
lowerneck -20.0136 -3.64301 -9.24351
upperneck 27.1824 -4.14593 6.28481
head 12.7164 -2.01566 3.28251
rclavicle 2.38293e-014 3.47873e-016
rhumerus -23.7802 -2.58665 -87.2788
rradius 32.998
rwrist 3.25446
rhand -17.8115 5.84956
rfingers 7.12502
rthumb 8.45223 -23.9613
lclavicle 2.38293e-014 3.47873e-016
lhumerus -39.7426 3.74647 83.56
lradius 29.7579
lwrist -8.31672
lhand -17.105 24.1016
lfingers 7.12502
lthumb 9.13401 53.8838
rfemur 10.8239 -0.301883 29.5279
rtibia 19.27
rfoot -16.4152 -4.38649
rtoes -5.10548
lfemur -22.5514 -2.13522 -18.3681
ltibia 16.0364
lfoot -1.01364 3.76644
ltoes -6.15028
3486
root 1.20448 17.6851 -3.53113 -1435.57 -52.0868 -5.74446
lowerback 9.93806 5.39854 3.84559
upperback 0.331432 7.62993 0.604728
thorax -4.77723 3.68045 -2.53913
lowerneck -20.0279 -3.62558 -9.05397
upperneck 27.3617 -4.15308 6.14781
head 12.7842 -2.0199 3.19933
rclavicle -1.43808e-014 2.73329e-015
rhumerus -23.8877 -2.79757 -87.3201
rradius 32.9088
rwrist 3.33244
rhand -17.7128 6.12985
rfingers 7.12502
rthumb 8.54746 -23.6772
lclavicle -1.43808e-014 2.73329e-015
lhumerus -39.8078 3.82679 83.4863
lradius 29.4387
lwrist -8.43821
lhand -15.0302 25.0066
lfingers 7.12502
lthumb 11.1356 54.6911
rfemur 11.0087 -0.0705233 29.1445
rtibia 19.5729
rfoot -15.798 -4.42979
rtoes -6.67334
lfemur -22.4541 -2.00102 -18.8038
ltibia 16.1023
lfoot 0.22715 3.11672
ltoes -7.07754
3487
root 1.09733 17.7069 -3.43403 -1436 -52.1839 -5.12284
lowerback 9.9012 5.44686 3.41242
upperback 0.235819 7.64297 0.483659
thorax -4.89554 3.69198 -2.43364
lowerneck -20.1476 -3.58865 -8.98449
upperneck 27.6198 -4.12663 6.14527
head 12.9094 -2.0036 3.19672
rclavicle 9.25871e-014 4.96962e-015
rhumerus -24.0565 -2.76432 -87.4264
rradius 32.8914
rwrist 3.33532
rhand -17.9403 5.99179
rfingers 7.12502
rthumb 8.328 -23.824
lclavicle 9.25871e-014 4.96962e-015
lhumerus -39.8846 4.11337 83.3486
lradius 29.0218
lwrist -8.64429
lhand -16.8095 24.7958
lfingers 7.12502
lthumb 9.41918 54.5653
rfemur 11.0972 0.00306181 28.689
rtibia 20.1607
rfoot -15.2105 -4.39846
rtoes -8.10934
lfemur -22.1693 -2.04399 -19.243
ltibia 15.9998
lfoot 1.32449 2.58704
ltoes -5.58674
3488
root 0.988843 17.7292 -3.3366 -1436.53 -52.1916 -4.47277
lowerback 9.91263 5.44115 3.01472
upperback 0.188525 7.58651 0.348265
thorax -4.98738 3.6696 -2.35537
lowerneck -20.1826 -3.54976 -9.03404
upperneck 27.693 -4.09791 6.28252
head 12.948 -1.97881 3.26607
rclavicle -5.09168e-014 -1.46107e-014
rhumerus -24.2217 -2.87738 -87.5557
rradius 32.8305
rwrist 3.58061
rhand -17.9291 6.01456
rfingers 7.12502
rthumb 8.33873 -23.8008
lclavicle -5.09168e-014 -1.46107e-014
lhumerus -39.971 4.33877 83.2549
lradius 28.662
lwrist -8.4656
lhand -16.2942 25.1545
lfingers 7.12502
lthumb 9.91632 54.901
rfemur 11.1313 0.0892021 28.2372
rtibia 21.0474
rfoot -14.7403 -4.36573
rtoes -8.24926
lfemur -21.6699 -1.94922 -19.7763
ltibia 15.762
lfoot 2.39513 1.97181
ltoes -2.99875
3489
root 0.878286 17.7466 -3.24357 -1437.11 -52.106 -3.79415
lowerback 9.86183 5.38767 2.58133
upperback 0.21414 7.45775 0.21857
thorax -4.97638 3.61602 -2.23068
lowerneck -20.1454 -3.4975 -9.0995
upperneck 27.6432 -4.04705 6.42892
head 12.9197 -1.94403 3.34281
rclavicle 2.53186e-014 -7.0817e-015
rhumerus -24.331 -2.97296 -87.6879
rradius 32.7843
rwrist 3.82766
rhand -17.8091 6.19357
rfingers 7.12502
rthumb 8.45458 -23.6172
lclavicle 2.53186e-014 -7.0817e-015
lhumerus -40.0586 4.79411 83.0298
lradius 28.4313
lwrist -8.83186
lhand -14.8074 25.8102
lfingers 7.12502
lthumb 11.3505 55.4831
rfemur 11.0841 0.0830286 27.7706
rtibia 22.1082
rfoot -14.2658 -4.2357
rtoes -7.41701
lfemur -21.1092 -1.67168 -20.3884
ltibia 15.5569
lfoot 3.23313 1.38158
ltoes -1.74932
3490
root 0.766983 17.7632 -3.14678 -1437.5 -51.9828 -3.26827
lowerback 9.71677 5.33825 2.27104
upperback 0.216905 7.34829 0.108088
thorax -4.92191 3.5703 -2.14637
lowerneck -20.1502 -3.49099 -9.11602
upperneck 27.6704 -4.04674 6.47086
head 12.9331 -1.94063 3.36295
rclavicle 6.47114e-014 1.11816e-016
rhumerus -24.4606 -3.1638 -87.7984
rradius 32.661
rwrist 4.07342
rhand -17.9533 6.16464
rfingers 7.12502
rthumb 8.31537 -23.6517
lclavicle 6.47114e-014 1.11816e-016
lhumerus -40.1136 5.21457 82.7693
lradius 28.0981
lwrist -9.49248
lhand -16.8503 24.0416
lfingers 7.12502
lthumb 9.3798 53.8129
rfemur 10.8917 -0.154304 27.3145
rtibia 23.2807
rfoot -13.6407 -3.92376
rtoes -6.96461
lfemur -20.5858 -1.08554 -20.9826
ltibia 15.4363
lfoot 3.64773 0.758949
ltoes -2.43242
3491
root 0.657679 17.7813 -3.04689 -1437.77 -51.8874 -2.95248
lowerback 9.69503 5.31196 2.13435
upperback 0.161187 7.29473 0.0133398
thorax -4.9751 3.54482 -2.16423
lowerneck -20.0755 -3.48329 -9.01325
upperneck 27.6973 -4.06054 6.40469
head 12.9257 -1.94662 3.31758
rclavicle 1.45863e-013 -1.63531e-014
rhumerus -24.7329 -3.53727 -87.8835
rradius 32.5835
rwrist 4.32909
rhand -17.8607 6.07979
rfingers 7.12502
rthumb 8.40478 -23.733
lclavicle 1.45863e-013 -1.63531e-014
lhumerus -40.1406 5.11885 82.7925
lradius 27.6354
lwrist -9.04503
lhand -17.1176 23.9346
lfingers 7.12502
lthumb 9.12183 53.7173
rfemur 10.6752 -0.299696 26.9987
rtibia 24.5352
rfoot -12.8254 -3.66857
rtoes -7.33024
lfemur -20.0244 -0.376618 -21.4346
ltibia 15.406
lfoot 3.71657 0.109013
ltoes -2.32459
3492
root 0.550913 17.8006 -2.94817 -1437.88 -51.6545 -2.8451
lowerback 9.65189 5.21371 2.11529
upperback 0.130736 7.16096 -0.00904202
thorax -4.98841 3.47879 -2.15741
lowerneck -19.9207 -3.4308 -8.97321
upperneck 27.5884 -3.99256 6.3567
head 12.8402 -1.92002 3.30103
rclavicle -7.8023e-015 -1.24613e-014
rhumerus -24.9825 -3.86437 -87.9073
rradius 32.5606
rwrist 4.51462
rhand -17.592 6.09992
rfingers 7.12502
rthumb 8.6641 -23.7023
lclavicle -7.8023e-015 -1.24613e-014
lhumerus -40.1686 5.15316 82.8103
lradius 27.3
lwrist -8.59937
lhand -16.7823 24.366
lfingers 7.12502
lthumb 9.44537 54.1343
rfemur 10.37 -0.492236 26.8584
rtibia 25.8575
rfoot -11.8061 -3.45035
rtoes -8.22277
lfemur -19.5257 0.0966712 -21.6638
ltibia 15.4614
lfoot 3.65849 -0.717054
ltoes -0.193204
3493
root 0.447031 17.8229 -2.84984 -1437.97 -51.1709 -2.77965
lowerback 9.61612 5.00142 2.14793
upperback 0.153878 6.88131 -0.000316523
thorax -4.95397 3.34112 -2.12568
lowerneck -20.0326 -3.37573 -9.04918
upperneck 27.6668 -3.89468 6.40542
head 12.8888 -1.87787 3.35194
rclavicle 1.94638e-014 -1.83255e-015
rhumerus -25.1466 -3.85528 -87.976
rradius 32.5664
rwrist 4.45961
rhand -17.4093 6.296
rfingers 7.12502
rthumb 8.84039 -23.4988
lclavicle 1.94638e-014 -1.83255e-015
lhumerus -40.2422 5.66312 82.5823
lradius 27.239
lwrist -9.23659
lhand -16.9879 24.289
lfingers 7.12502
lthumb 9.24703 54.0663
rfemur 9.97753 -0.923077 26.7487
rtibia 27.3304
rfoot -10.7351 -3.23896
rtoes -8.49185
lfemur -19.0107 0.302477 -21.825
ltibia 15.4468
lfoot 3.49581 -1.69978
ltoes 2.16581
3494
root 0.340981 17.8497 -2.75489 -1438.18 -50.954 -2.66238
lowerback 9.66492 4.8896 2.06612
upperback 0.214941 6.72282 0.000854681
thorax -4.93382 3.26538 -2.06091
lowerneck -20.2696 -3.32597 -9.01905
upperneck 27.8194 -3.80781 6.37581
head 12.9904 -1.83864 3.35385
rclavicle 1.72624e-014 3.00041e-015
rhumerus -25.2935 -3.76836 -88.0917
rradius 32.6295
rwrist 4.28909
rhand -17.3189 6.29622
rfingers 7.12502
rthumb 8.9276 -23.4949
lclavicle 1.72624e-014 3.00041e-015
lhumerus -40.2278 6.20098 82.2641
lradius 27.1795
lwrist -10.614
lhand -15.9175 24.8572
lfingers 7.12502
lthumb 10.2797 54.586
rfemur 9.5264 -1.16019 26.5583
rtibia 29.0313
rfoot -9.57265 -2.95537
rtoes -7.61546
lfemur -18.2887 0.561109 -21.975
ltibia 15.2398
lfoot 3.23308 -2.36029
ltoes 2.88909
3495
root 0.234953 17.8728 -2.6609 -1438.66 -50.7361 -2.16594
lowerback 9.70391 4.8282 1.7586
upperback 0.24647 6.60138 -0.107634
thorax -4.9494 3.21124 -1.99117
lowerneck -20.2861 -3.32616 -8.91578
upperneck 27.8307 -3.8342 6.34538
head 12.9977 -1.84317 3.31977
rclavicle 2.66791e-014 -3.65267e-015
rhumerus -25.5325 -3.89139 -88.195
rradius 32.6797
rwrist 4.23944
rhand -17.3527 6.06437
rfingers 7.12502
rthumb 8.89502 -23.7281
lclavicle 2.66791e-014 -3.65267e-015
lhumerus -40.1702 5.88806 82.4237
lradius 26.9282
lwrist -10.082
lhand -14.9028 25.546
lfingers 7.12502
lthumb 11.2585 55.2239
rfemur 8.87551 -1.51362 26.043
rtibia 30.9748
rfoot -8.15997 -2.4341
rtoes -6.46033
lfemur -17.4748 1.02746 -22.4225
ltibia 14.826
lfoot 2.98737 -3.24537
ltoes 2.08515
3496
root 0.131581 17.8907 -2.56685 -1439.23 -50.542 -1.4749
lowerback 9.65723 4.77026 1.34444
upperback 0.281106 6.46943 -0.254309
thorax -4.92081 3.15503 -1.89228
lowerneck -20.2346 -3.32088 -8.8762
upperneck 27.7689 -3.84904 6.366
head 12.9624 -1.84268 3.317
rclavicle 8.75118e-014 -4.74598e-015
rhumerus -25.7631 -4.32084 -88.1789
rradius 32.5611
rwrist 4.35566
rhand -17.2121 6.52862
rfingers 7.12502
rthumb 9.03068 -23.2581
lclavicle 8.75118e-014 -4.74598e-015
lhumerus -40.0095 5.85379 82.3421
lradius 26.6597
lwrist -10.7741
lhand -16.6895 24.3963
lfingers 7.12502
lthumb 9.53495 54.1606
rfemur 8.01796 -1.91559 25.3427
rtibia 33.0662
rfoot -6.448 -1.58859
rtoes -5.55811
lfemur -16.6764 1.90751 -23.066
ltibia 14.301
lfoot 2.59176 -4.67911
ltoes 1.18625
3497
root 0.0305331 17.9093 -2.47487 -1439.64 -50.3802 -1.05066
lowerback 9.67191 4.71716 1.07949
upperback 0.315086 6.36628 -0.305136
thorax -4.92003 3.10964 -1.78569
lowerneck -20.1972 -3.29564 -8.86747
upperneck 27.726 -3.80853 6.34063
head 12.9323 -1.82728 3.3114
rclavicle -5.62685e-014 2.33572e-015
rhumerus -26.0068 -4.68205 -88.042
rradius 32.3665
rwrist 4.36685
rhand -17.1036 7.3506
rfingers 7.12502
rthumb 9.13541 -22.4315
lclavicle -5.62685e-014 2.33572e-015
lhumerus -39.8044 5.89993 82.3728
lradius 26.34
lwrist -11.3732
lhand -16.8102 24.3879
lfingers 7.12502
lthumb 9.4185 54.1575
rfemur 7.12124 -2.23015 24.8198
rtibia 35.2208
rfoot -4.50986 -0.863993
rtoes -2.91242
lfemur -15.7997 2.70247 -23.4886
ltibia 13.6797
lfoot 2.26267 -5.83285
ltoes 1.85262
3498
root -0.0680544 17.9292 -2.38226 -1439.8 -50.1993 -0.949083
lowerback 9.71899 4.63348 1.03277
upperback 0.333638 6.25031 -0.295087
thorax -4.93673 3.05315 -1.73787
lowerneck -20.1218 -3.27647 -8.90046
upperneck 27.6284 -3.77258 6.34546
head 12.8743 -1.81411 3.32268
rclavicle 2.08845e-013 -4.29872e-015
rhumerus -26.3096 -4.72144 -87.9746
rradius 32.324
rwrist 4.26351
rhand -17.2658 7.85561
rfingers 7.12502
rthumb 8.97885 -21.9333
lclavicle 2.08845e-013 -4.29872e-015
lhumerus -39.6836 5.88672 82.4469
lradius 26.1499
lwrist -11.8137
lhand -16.4422 24.8612
lfingers 7.12502
lthumb 9.77356 54.6144
rfemur 6.15509 -2.55371 24.515
rtibia 37.3858
rfoot -2.29457 -0.502734
rtoes 1.07279
lfemur -14.9395 2.7681 -23.5257
ltibia 13.0367
lfoot 2.12797 -6.32052
ltoes 3.51687
3499
root -0.167478 17.9484 -2.28517 -1439.97 -50.0785 -0.790559
lowerback 9.65909 4.56714 0.97391
upperback 0.404341 6.15302 -0.310564
thorax -4.83669 3.00823 -1.69916
lowerneck -20.2138 -3.27684 -9.00139
upperneck 27.5904 -3.75135 6.4265
head 12.88 -1.8023 3.37458
rclavicle -1.03573e-013 6.83322e-016
rhumerus -26.5689 -4.54779 -87.9759
rradius 32.4665
rwrist 4.03182
rhand -17.2633 7.93122
rfingers 7.12502
rthumb 8.98132 -21.8576
lclavicle -1.03573e-013 6.83322e-016
lhumerus -39.5996 5.78515 82.5515
lradius 26.156
lwrist -12.1071
lhand -15.352 25.0539
lfingers 7.12502
lthumb 10.8253 54.7549
rfemur 5.15925 -2.99113 24.1008
rtibia 39.4346
rfoot 0.288823 0.089381
rtoes 3.31622
lfemur -14.1646 2.58312 -23.552
ltibia 12.5728
lfoot 2.13697 -6.52566
ltoes 4.76292
